<?xml version="1.0" encoding="UTF-8"?>
<svg id="Layer_2" xmlns="http://www.w3.org/2000/svg" xmlns:xlink="http://www.w3.org/1999/xlink" viewBox="0 0 265.08 424.03">
  <defs>
    <style>
      .cls-1 {
        stroke: #000;
      }

      .cls-1, .cls-2, .cls-3, .cls-4 {
        fill: none;
      }

      .cls-1, .cls-4 {
        stroke-dasharray: 1.97 .99;
        stroke-width: .3px;
      }

      .cls-2 {
        stroke-width: .32px;
      }

      .cls-2, .cls-5 {
        stroke: #414042;
      }

      .cls-6, .cls-7, .cls-8, .cls-9 {
        fill: #fff;
      }

      .cls-10 {
        clip-path: url(#clippath-1);
      }

      .cls-11 {
        fill: #bfbfbf;
      }

      .cls-5 {
        fill: #e2c675;
        stroke-width: .29px;
      }

      .cls-7, .cls-3 {
        stroke-width: .32px;
      }

      .cls-7, .cls-3, .cls-8, .cls-4, .cls-9 {
        stroke: #444b4c;
      }

      .cls-12 {
        fill: #444b4c;
      }

      .cls-8 {
        stroke-width: .32px;
      }

      .cls-9 {
        stroke-width: .26px;
      }

      .cls-13 {
        clip-path: url(#clippath);
      }
    </style>
    <clipPath id="clippath">
      <path id="Mask-2" data-name="Mask" class="cls-7" d="M263.09,6.46s-2.2-6.02-4.76-6.02l-18.62-.12c-.25,0-.48.06-.66.17h-5.67s-61.01-.32-79.41-.32c-8.05,0-11.6,2.4-13.08,5.1h0c-.03-7.81,1.44,311.77,1.44,327.24,0,3.64,9.21,39.78,12.08,56.35.6,3.48,6.43,9.96,11.99,10.37,5.56.4,72.73.81,72.73.81h0c.43.01,10.81.3,16.28.3.82,0,1.53-.06,2.16-.18,1.65-.3,2.63-.94,3.05-1.66l1.76-14.91-.28-44.67c0-3.67-3.4-3.67-3.4-3.67,0,0,3.69,0,3.69-4.33,0,0,1.37-53.43,2.03-132.1,0-1.39-.95-4.19-.95-4.19,0,0,1-3.04,1.01-4.56.51-66.46.45-148.35-1.4-183.61Z"/>
    </clipPath>
    <clipPath id="clippath-1">
      <path id="Mask-5" data-name="Mask" class="cls-7" d="M1.99,6.46S4.19.44,6.75.44l18.62-.12c.25,0,.48.06.66.17h5.67S92.7.17,111.1.17c8.05,0,11.6,2.4,13.08,5.1h0c.03-7.81-1.44,311.77-1.44,327.24,0,3.64-9.21,39.78-12.08,56.35-.6,3.48-6.43,9.96-11.99,10.37-5.56.4-72.73.81-72.73.81h0c-.43.01-10.81.3-16.28.3-.82,0-1.53-.06-2.16-.18-1.65-.3-2.63-.94-3.05-1.66l-1.76-14.91.28-44.67c0-3.67,3.4-3.67,3.4-3.67,0,0-3.69,0-3.69-4.33,0,0-1.37-53.43-2.03-132.1,0-1.39.95-4.19.95-4.19,0,0-1-3.04-1.01-4.56C.08,123.61.14,41.72,1.99,6.46Z"/>
    </clipPath>
  </defs>
  <g id="Template">
    <g id="Pads">
      <g id="Front">
        <g>
          <g id="Right">
            <g id="ToeTie">
              <path class="cls-8" d="M218.8,406.41h-33.87v4.51c0,3.11,9.93,5.45,8.98,8.71l-.23.8c-.23.78.09,1.64.72,1.92l3.14,1.43c.57.26,1.21-.06,1.48-.73h5.69c.27.67.91.99,1.49.73l3.13-1.43c.62-.28.94-1.14.72-1.92l-.23-.8c-.95-3.26,8.99-6.31,8.99-8.71v-4.51Z"/>
              <ellipse class="cls-12" cx="196.98" cy="419.93" rx="1.19" ry="1.49"/>
              <ellipse class="cls-12" cx="206.77" cy="419.93" rx="1.19" ry="1.49"/>
            </g>
            <g id="Base">
              <path class="cls-7" d="M260.83,398.05l-1.09,7.72c-3.44,4.25-5.1,3.3-8.65,3.3-3.56,0-71.09-1.21-79.05-1.21-11.51,0-20.75-1.3-22.99-19.07-2.4-19.06-11.52-51-11.52-55.97,0-15.48-2.17-314.98-2.17-318.85,0-5.76,5.55-8.69,5.55-8.69-.03-7.82,1.44,311.76,1.44,327.23,0,3.64,9.21,39.78,12.08,56.35.6,3.48,6.43,9.96,11.99,10.37,5.56.4,72.73.81,72.73.81h0c.43.01,10.81.3,16.28.3.82,0,1.53-.06,2.16-.18,1.65-.3,2.63-.94,3.05-1.66.09-.15.16-.3.19-.45Z"/>
              <path class="cls-7" d="M138.28,13.97c0-5.76,2.62-8.69,2.62-8.69"/>
              <path class="cls-7" d="M264.5,190.07c0,1.52-1.01,4.56-1.01,4.56,0,0,.96,2.8.95,4.19-.66,78.67-2.03,132.1-2.03,132.1,0,4.33-3.69,4.33-3.69,4.33,0,0,3.4,0,3.4,3.67l.28,44.67-1.76,14.91c-.42.72-1.4,1.36-3.05,1.66-.62.12-1.34.18-2.16.18-5.46,0-15.85-.29-16.28-.3.06-11.87.29-43.29.29-61.88,0-1.56,3.27-3,3.27-3,0,0-3.25-.51-3.25-4.54,0-19.46.12-135.36.15-139.1.17-17.45.1-26.73-.09-52.52-.08-10.71-.18-21.69-.28-32.54-.54-54.6-1.35-103.15-1.35-103.15,0,0,0-2.21,1.15-2.82.19-.11.41-.17.66-.17l18.62.12c2.55,0,4.76,6.02,4.76,6.02,1.85,35.26,1.91,117.15,1.4,183.61Z"/>
            </g>
            <g id="Design">
              <path id="Mask" class="cls-6" d="M263.09,6.46s-2.2-6.02-4.76-6.02l-18.62-.12c-.25,0-.48.06-.66.17h-5.67s-61.01-.32-79.41-.32c-8.05,0-11.6,2.4-13.08,5.1h0c-.03-7.81,1.44,311.77,1.44,327.24,0,3.64,9.21,39.78,12.08,56.35.6,3.48,6.43,9.96,11.99,10.37,5.56.4,72.73.81,72.73.81h0c.43.01,10.81.3,16.28.3.82,0,1.53-.06,2.16-.18,1.65-.3,2.63-.94,3.05-1.66l1.76-14.91-.28-44.67c0-3.67-3.4-3.67-3.4-3.67,0,0,3.69,0,3.69-4.33,0,0,1.37-53.43,2.03-132.1,0-1.39-.95-4.19-.95-4.19,0,0,1-3.04,1.01-4.56.51-66.46.45-148.35-1.4-183.61Z"/>
              <g class="cls-13">
                <polygon class="cls-7" points="222.22 25.6 160.76 256.61 170.23 270.43 238.06 428.1 273.42 419.93 273.42 -12.16 235 -14.84 222.22 25.6"/>
                <polygon class="cls-7" points="271.07 383.81 194.76 246.27 218.8 217.76 264.95 .16 273.46 .16 271.07 383.81"/>
                <polygon class="cls-7" points="252.52 424.42 173.49 249.23 193.21 180.82 183.76 247.27 277.53 433.56 252.88 433.24 252.52 424.42"/>
                <polygon class="cls-9" points="272.43 386.42 210.08 273.2 230.57 244.08 219.37 271.36 293.36 391.69 273.46 393.5 272.43 386.42"/>
                <polygon class="cls-7" points="139.6 361.38 180.02 301.27 159.81 244.08 235 -14.84 137.53 -14.84 137.53 332.82 139.6 361.38"/>
                <polygon class="cls-7" points="194.76 246.27 218.8 217.76 242.41 106.46 233.56 200.25 296.72 125.34 201.86 260.22 194.76 246.27"/>
                <polygon class="cls-7" points="223.22 25.6 162.69 247.97 228.24 406.41 137.53 406.41 144.21 342.21 173.41 301.27 151.98 247.94 223.22 25.6"/>
              </g>
              <path id="Mask-3" data-name="Mask" class="cls-3" d="M263.09,6.46s-2.2-6.02-4.76-6.02l-18.62-.12c-.25,0-.48.06-.66.17h-5.67s-61.01-.32-79.41-.32c-8.05,0-11.6,2.4-13.08,5.1h0c-.03-7.81,1.44,311.77,1.44,327.24,0,3.64,9.21,39.78,12.08,56.35.6,3.48,6.43,9.96,11.99,10.37,5.56.4,72.73.81,72.73.81h0c.43.01,10.81.3,16.28.3.82,0,1.53-.06,2.16-.18,1.65-.3,2.63-.94,3.05-1.66l1.76-14.91-.28-44.67c0-3.67-3.4-3.67-3.4-3.67,0,0,3.69,0,3.69-4.33,0,0,1.37-53.43,2.03-132.1,0-1.39-.95-4.19-.95-4.19,0,0,1-3.04,1.01-4.56.51-66.46.45-148.35-1.4-183.61Z"/>
            </g>
            <g id="Line">
              <line class="cls-5" x1="242.72" y1="335.16" x2="258.72" y2="335.25"/>
              <path class="cls-3" d="M262.4,383.04s-1.5,1.55-11.78,1.55c-9.83,0-11.38-1.55-11.38-1.55"/>
              <path class="cls-2" d="M241.42,334.65s-69.42-.56-84.7-1.29c-15.27-.74-14.37-.85-14.37-.85l-4.82.31"/>
              <path class="cls-3" d="M255.44,400.5c-3.23,0-8.73-.1-15.9-.29h-.53s0-.17,0-.17c.05-9.7.29-42.95.29-61.88,0-1.32,2.08-2.51,2.97-2.96-.91-.31-2.95-1.37-2.95-4.58,0-17.76.12-135.17.15-139.1.15-15.78.12-23.49-.09-52.52-.07-9.82-.16-20.46-.28-32.54-.53-53.98-1.34-102.66-1.35-103.15,0-.1.01-2.32,1.24-2.97.21-.12.46-.19.73-.19l18.62.12c2.63,0,4.81,5.87,4.9,6.12v.05c1.76,33.33,1.97,111.32,1.41,183.62,0,1.44-.87,4.13-1,4.56.13.4.95,2.88.94,4.19-.66,77.77-2.01,131.67-2.03,132.1,0,3-1.74,3.99-2.88,4.32,1.05.3,2.6,1.17,2.6,3.67l.28,44.67-1.78,14.99c-.49.84-1.61,1.45-3.16,1.74-.64.12-1.35.18-2.18.18ZM239.32,399.88h.23c7.17.2,12.66.3,15.89.3.81,0,1.51-.06,2.13-.18,1.44-.26,2.48-.81,2.93-1.56l1.75-14.88-.28-44.65c0-3.46-3.11-3.51-3.25-3.51v-.32c.14,0,3.53-.06,3.53-4.17.01-.44,1.37-54.33,2.03-132.1,0-1.35-.93-4.11-.94-4.14l-.02-.05.02-.05s1-3.03,1.01-4.51h0c.55-72.28.35-150.24-1.4-183.58-.15-.4-2.26-5.89-4.6-5.89l-18.62-.12c-.22,0-.42.05-.58.15-1.06.56-1.07,2.66-1.07,2.68,0,.48.82,49.17,1.35,103.15.12,12.08.21,22.72.28,32.54.21,29.03.24,36.75.09,52.52-.03,3.47-.15,118.44-.15,139.1,0,3.85,3.08,4.38,3.11,4.38l.54.09-.5.22s-3.17,1.41-3.17,2.85c0,18.83-.24,51.62-.29,61.72Z"/>
              <path class="cls-7" d="M260.83,398.05l-1.09,7.72c-3.44,4.25-5.1,3.3-8.65,3.3-3.56,0-71.09-1.21-79.05-1.21-11.51,0-20.75-1.3-22.99-19.07-2.4-19.06-11.52-51-11.52-55.97,0-15.48-2.17-314.98-2.17-318.85,0-5.76,5.55-8.69,5.55-8.69-.03-7.82,1.44,311.76,1.44,327.23,0,3.64,9.21,39.78,12.08,56.35.6,3.48,6.43,9.96,11.99,10.37,5.56.4,72.73.81,72.73.81h0c.43.01,10.81.3,16.28.3.82,0,1.53-.06,2.16-.18,1.65-.3,2.63-.94,3.05-1.66.09-.15.16-.3.19-.45Z"/>
            </g>
            <g id="Binding">
              <path class="cls-7" d="M153.37,382.47c.61,3.62.66,4.06,1.06,6.39.6,3.48,6.43,9.96,11.99,10.37,5.56.4,72.73.81,72.73.81h0c.43.01,10.81.3,16.28.3.82,0,1.53-.06,2.16-.18,1.65-.3,2.63-.94,3.05-1.66.09-.15.16-.3.19-.45l-1.09,7.72c-3.44,4.25-5.1,3.3-8.65,3.3-3.56,0-71.09-1.21-79.05-1.21-11.51,0-21.4-1.3-23.64-19.07-.28-2.25-.66-4.96-1.1-8-.03-.19.17-.32.32-.22l5.75,1.9Z"/>
              <path class="cls-7" d="M239.04.48l-85.1-.31c-3.73,0-6.88,0-9.06.02-3.9.03-9.97,3.28-9.95,7.28.05,9.94.13,26.79.13,27.73h6.01s0-26.75,0-26.75c0-.77.43-1.5,1.11-1.81,3.21-1.47,7.88-1.31,11.8-1.31,3.91,0,76.72.32,80.04.32,2.63,0,3.4.61,3.77,1.52l.24.34c0-3.18,12.07-4.98,23.91-3.9,0,0-1.39-3.42-3.95-3.42h-17.72c-1.1,0-1.23.28-1.23.28Z"/>
            </g>
            <g id="Stitch">
              <path class="cls-4" d="M262.4,384.59s-1.5,1-11.78,1c-9.83,0-11.38-1-11.38-1"/>
              <path class="cls-4" d="M260.65,400.5c-.42.72-1.4,1.36-3.05,1.66-.62.12-1.34.18-2.16.18-5.46,0-15.85-.29-16.28-.3h0s-68.14-.41-73.7-.81c-5.57-.41-11.39-6.89-11.99-10.37l-1.47-9.32"/>
              <path class="cls-4" d="M140.09,35.2c.41-3.72-.54-28.02,0-28.39,3.05-2.8,8.04-2.49,11.77-2.49,0,0,79.6.33,82.16.33,1.36,0,2.33.16,3.04.47l.96.88"/>
              <path class="cls-1" d="M238.03,6.51c0-3.13,11.64-4.91,23.27-3.96"/>
              <path class="cls-3" d="M238.03,12.49V1.93c0-.95.75-1.73,1.68-1.73h1.33"/>
            </g>
          </g>
          <g id="Right-2" data-name="Right">
            <g id="ToeTie-2" data-name="ToeTie">
              <path class="cls-8" d="M46.28,406.41h33.87v4.51c0,3.11-9.93,5.45-8.98,8.71l.23.8c.23.78-.09,1.64-.72,1.92l-3.14,1.43c-.57.26-1.21-.06-1.48-.73h-5.69c-.27.67-.91.99-1.49.73l-3.13-1.43c-.62-.28-.94-1.14-.72-1.92l.23-.8c.95-3.26-8.99-6.31-8.99-8.71v-4.51Z"/>
              <ellipse class="cls-12" cx="68.1" cy="419.93" rx="1.19" ry="1.49"/>
              <path class="cls-12" d="M59.5,419.93c0-.82-.53-1.49-1.19-1.49-.66,0-1.19.67-1.19,1.49,0,.82.53,1.49,1.19,1.49s1.19-.67,1.19-1.49Z"/>
            </g>
            <g id="Base-2" data-name="Base">
              <path class="cls-7" d="M4.25,398.05l1.09,7.72c3.44,4.25,5.1,3.3,8.65,3.3,3.56,0,71.09-1.21,79.05-1.21,11.51,0,20.75-1.3,22.99-19.07,2.4-19.06,11.52-51,11.52-55.97,0-15.48,2.17-314.98,2.17-318.85,0-5.76-5.55-8.69-5.55-8.69.03-7.82-1.44,311.76-1.44,327.23,0,3.64-9.21,39.78-12.08,56.35-.6,3.48-6.43,9.96-11.99,10.37-5.56.4-72.73.81-72.73.81h0c-.43.01-10.81.3-16.28.3-.82,0-1.53-.06-2.16-.18-1.65-.3-2.63-.94-3.05-1.66-.09-.15-.16-.3-.19-.45Z"/>
              <path class="cls-7" d="M126.8,13.97c0-5.76-2.62-8.69-2.62-8.69"/>
              <path class="cls-7" d="M.59,190.07c0,1.52,1.01,4.56,1.01,4.56,0,0-.96,2.8-.95,4.19.66,78.67,2.03,132.1,2.03,132.1,0,4.33,3.69,4.33,3.69,4.33,0,0-3.4,0-3.4,3.67l-.28,44.67,1.76,14.91c.42.72,1.4,1.36,3.05,1.66.62.12,1.34.18,2.16.18,5.46,0,15.85-.29,16.28-.3-.06-11.87-.29-43.29-.29-61.88,0-1.56-3.27-3-3.27-3,0,0,3.25-.51,3.25-4.54,0-19.46-.12-135.36-.15-139.1-.17-17.45-.1-26.73.09-52.52.08-10.71.18-21.69.28-32.54.54-54.6,1.35-103.15,1.35-103.15,0,0,0-2.21-1.15-2.82-.19-.11-.41-.17-.66-.17l-18.62.12c-2.55,0-4.76,6.02-4.76,6.02C.14,41.72.08,123.61.59,190.07Z"/>
            </g>
            <g id="Design-2" data-name="Design">
              <path id="Mask-4" data-name="Mask" class="cls-6" d="M1.99,6.46S4.19.44,6.75.44l18.62-.12c.25,0,.48.06.66.17h5.67S92.7.17,111.1.17c8.05,0,11.6,2.4,13.08,5.1h0c.03-7.81-1.44,311.77-1.44,327.24,0,3.64-9.21,39.78-12.08,56.35-.6,3.48-6.43,9.96-11.99,10.37-5.56.4-72.73.81-72.73.81h0c-.43.01-10.81.3-16.28.3-.82,0-1.53-.06-2.16-.18-1.65-.3-2.63-.94-3.05-1.66l-1.76-14.91.28-44.67c0-3.67,3.4-3.67,3.4-3.67,0,0-3.69,0-3.69-4.33,0,0-1.37-53.43-2.03-132.1,0-1.39.95-4.19.95-4.19,0,0-1-3.04-1.01-4.56C.08,123.61.14,41.72,1.99,6.46Z"/>
              <g class="cls-10">
                <polygon class="cls-7" points="42.86 25.6 104.32 256.61 94.85 270.43 27.02 428.1 -8.33 419.93 -8.33 -12.16 30.08 -14.84 42.86 25.6"/>
                <polygon class="cls-7" points="-5.99 383.81 70.33 246.27 46.28 217.76 .13 .16 -8.37 .16 -5.99 383.81"/>
                <polygon class="cls-7" points="12.57 424.42 91.6 249.23 71.87 180.82 81.33 247.27 -12.44 433.56 12.21 433.24 12.57 424.42"/>
                <polygon class="cls-9" points="-7.34 386.42 55 273.2 34.52 244.08 45.71 271.36 -28.27 391.69 -8.37 393.5 -7.34 386.42"/>
                <polygon class="cls-7" points="125.49 361.38 85.07 301.27 105.28 244.08 30.08 -14.84 127.55 -14.84 127.55 332.82 125.49 361.38"/>
                <polygon class="cls-7" points="70.33 246.27 46.28 217.76 22.68 106.46 31.53 200.25 -31.63 125.34 63.22 260.22 70.33 246.27"/>
                <polygon class="cls-7" points="41.86 25.6 102.39 247.97 36.85 406.41 127.55 406.41 120.88 342.21 91.67 301.27 113.1 247.94 41.86 25.6"/>
              </g>
              <path id="Mask-6" data-name="Mask" class="cls-3" d="M1.99,6.46S4.19.44,6.75.44l18.62-.12c.25,0,.48.06.66.17h5.67S92.7.17,111.1.17c8.05,0,11.6,2.4,13.08,5.1h0c.03-7.81-1.44,311.77-1.44,327.24,0,3.64-9.21,39.78-12.08,56.35-.6,3.48-6.43,9.96-11.99,10.37-5.56.4-72.73.81-72.73.81h0c-.43.01-10.81.3-16.28.3-.82,0-1.53-.06-2.16-.18-1.65-.3-2.63-.94-3.05-1.66l-1.76-14.91.28-44.67c0-3.67,3.4-3.67,3.4-3.67,0,0-3.69,0-3.69-4.33,0,0-1.37-53.43-2.03-132.1,0-1.39.95-4.19.95-4.19,0,0-1-3.04-1.01-4.56C.08,123.61.14,41.72,1.99,6.46Z"/>
            </g>
            <g id="Line-2" data-name="Line">
              <line class="cls-5" x1="22.36" y1="335.16" x2="6.37" y2="335.25"/>
              <path class="cls-3" d="M2.69,383.04s1.5,1.55,11.78,1.55c9.83,0,11.38-1.55,11.38-1.55"/>
              <path class="cls-2" d="M23.66,334.65s69.42-.56,84.7-1.29c15.27-.74,14.37-.85,14.37-.85l4.82.31"/>
              <path class="cls-3" d="M7.46,400.32c-1.55-.28-2.67-.9-3.16-1.74l-1.78-14.99.28-44.67c0-2.5,1.54-3.37,2.6-3.67-1.14-.33-2.88-1.32-2.88-4.32-.01-.43-1.37-54.33-2.03-132.1,0-1.31.8-3.79.94-4.19-.14-.42-1-3.12-1-4.56C-.12,117.77.08,39.78,1.83,6.45v-.05c.1-.25,2.28-6.12,4.91-6.12l18.62-.12c.28,0,.53.06.73.19,1.22.65,1.24,2.87,1.24,2.97,0,.49-.82,49.17-1.35,103.15-.12,12.08-.21,22.72-.28,32.54-.21,29.03-.24,36.74-.09,52.52.03,3.93.15,121.34.15,139.1,0,3.21-2.04,4.27-2.95,4.58.89.45,2.97,1.64,2.97,2.96,0,18.93.25,52.18.29,61.88v.16s-.53.01-.53.01c-7.17.19-12.67.29-15.9.29-.83,0-1.55-.06-2.18-.18ZM25.47,338.16c0-1.44-3.14-2.84-3.17-2.85l-.5-.22.54-.08s3.11-.53,3.11-4.38c0-20.66-.12-135.63-.15-139.1-.15-15.78-.12-23.5.09-52.52.07-9.82.16-20.46.28-32.54.53-53.98,1.34-102.67,1.35-103.15,0-.02-.01-2.12-1.07-2.68-.16-.1-.36-.15-.58-.15l-18.62.12c-2.34,0-4.45,5.49-4.6,5.89C.4,39.83.19,117.79.74,190.07h0c0,1.48,1,4.48,1.01,4.51l.02.05-.02.05s-.95,2.79-.94,4.14c.66,77.77,2.02,131.66,2.03,132.1,0,4.11,3.39,4.17,3.53,4.17v.32c-.13,0-3.25.05-3.25,3.51l-.28,44.65,1.75,14.88c.45.74,1.49,1.29,2.93,1.56.62.12,1.31.18,2.13.18,3.23,0,8.73-.1,15.89-.29h.23c-.05-10.11-.29-42.9-.29-61.73Z"/>
              <path class="cls-7" d="M4.25,398.05l1.09,7.72c3.44,4.25,5.1,3.3,8.65,3.3,3.56,0,71.09-1.21,79.05-1.21,11.51,0,20.75-1.3,22.99-19.07,2.4-19.06,11.52-51,11.52-55.97,0-15.48,2.17-314.98,2.17-318.85,0-5.76-5.55-8.69-5.55-8.69.03-7.82-1.44,311.76-1.44,327.23,0,3.64-9.21,39.78-12.08,56.35-.6,3.48-6.43,9.96-11.99,10.37-5.56.4-72.73.81-72.73.81h0c-.43.01-10.81.3-16.28.3-.82,0-1.53-.06-2.16-.18-1.65-.3-2.63-.94-3.05-1.66-.09-.15-.16-.3-.19-.45Z"/>
            </g>
            <g id="Binding-2" data-name="Binding">
              <path class="cls-7" d="M111.71,382.47c-.61,3.62-.66,4.06-1.06,6.39-.6,3.48-6.43,9.96-11.99,10.37-5.56.4-72.73.81-72.73.81h0c-.43.01-10.81.3-16.28.3-.82,0-1.53-.06-2.16-.18-1.65-.3-2.63-.94-3.05-1.66-.09-.15-.16-.3-.19-.45l1.09,7.72c3.44,4.25,5.1,3.3,8.65,3.3,3.56,0,71.09-1.21,79.05-1.21,11.51,0,21.4-1.3,23.64-19.07.28-2.25.66-4.96,1.1-8,.03-.19-.17-.32-.32-.22l-5.75,1.9Z"/>
              <path class="cls-7" d="M26.05.48L111.15.17c3.73,0,6.88,0,9.06.02,3.9.03,9.97,3.28,9.95,7.28-.05,9.94-.13,26.79-.13,27.73h-6.01V8.45c0-.77-.43-1.5-1.12-1.81-3.21-1.47-7.88-1.31-11.8-1.31-3.91,0-76.72.32-80.04.32-2.63,0-3.4.61-3.77,1.52l-.24.34c0-3.18-12.07-4.98-23.91-3.9C3.14,3.61,4.53.2,7.09.2h17.72c1.1,0,1.23.28,1.23.28Z"/>
            </g>
            <g id="Stitch-2" data-name="Stitch">
              <path class="cls-4" d="M2.69,384.59s1.5,1,11.78,1c9.83,0,11.38-1,11.38-1"/>
              <path class="cls-4" d="M4.44,400.5c.42.72,1.4,1.36,3.05,1.66.62.12,1.34.18,2.16.18,5.46,0,15.85-.29,16.28-.3h0s68.14-.41,73.7-.81c5.57-.41,11.39-6.89,11.99-10.37l1.47-9.32"/>
              <path class="cls-4" d="M125,35.2c-.41-3.72.54-28.02,0-28.39-3.05-2.8-8.04-2.49-11.77-2.49,0,0-79.6.33-82.16.33-1.36,0-2.33.16-3.04.47l-.96.88"/>
              <path class="cls-1" d="M27.05,6.51c0-3.13-11.64-4.91-23.27-3.96"/>
              <path class="cls-3" d="M27.06,12.49V1.93c0-.95-.75-1.73-1.68-1.73h-1.33"/>
            </g>
          </g>
          <g>
            <polygon class="cls-11" points="10.39 250.27 10.37 250.27 8.17 249.31 8.17 250.18 9.68 250.84 9.68 262.65 8.17 261.99 8.17 262.86 10.39 263.83 10.39 250.28 10.39 250.27"/>
            <polygon class="cls-11" points="14.34 245.73 4.96 241.66 4.96 243.69 4.96 243.7 12.57 247.01 12.57 264.8 21.96 268.87 21.96 266.84 21.96 266.83 14.34 263.52 14.34 245.73"/>
            <polygon class="cls-11" points="8.26 238.18 20.1 243.33 20.1 247.22 21.81 247.97 21.81 244.08 21.81 242.11 8.26 236.15 8.26 238.18"/>
            <polyline class="cls-11" points="18.65 274.25 18.65 272.28 5.1 266.32 5.1 268.36 18.65 274.25"/>
            <polygon class="cls-11" points="18.75 247.5 16.53 246.53 16.53 260.08 16.53 260.09 16.55 260.09 18.75 261.04 18.75 260.17 17.24 259.52 17.24 247.71 18.75 248.37 18.75 247.5"/>
          </g>
          <g>
            <polygon class="cls-11" points="255.23 260.13 255.25 260.13 257.45 261.08 257.45 260.21 255.93 259.55 255.93 247.75 257.45 248.41 257.45 247.53 255.23 246.57 255.23 260.12 255.23 260.13"/>
            <polygon class="cls-11" points="251.28 264.67 260.66 268.74 260.66 266.7 260.66 266.7 253.04 263.39 253.04 245.6 243.66 241.52 243.66 243.56 243.66 243.56 251.28 246.87 251.28 264.67"/>
            <polygon class="cls-11" points="257.36 272.21 245.52 267.06 245.52 263.17 243.81 262.43 243.81 266.32 243.81 268.29 257.36 274.25 257.36 272.21"/>
            <polyline class="cls-11" points="246.96 236.15 246.96 238.12 260.51 244.08 260.51 242.04 246.96 236.15"/>
            <polygon class="cls-11" points="246.86 262.9 249.08 263.86 249.08 250.31 249.08 250.31 249.06 250.31 246.86 249.35 246.86 250.22 248.38 250.88 248.38 262.68 246.86 262.03 246.86 262.9"/>
          </g>
        </g>
      </g>
    </g>
  </g>
</svg>