<?xml version="1.0" encoding="UTF-8"?>
<svg id="Layer_2" xmlns="http://www.w3.org/2000/svg" viewBox="0 0 26.96 36.79">
  <defs>
    <style>
      .cls-1 {
        fill: #ccc;
      }
    </style>
  </defs>
  <g id="Layer_1-2" data-name="Layer_1">
    <g>
      <path class="cls-1" d="M25.51,5.33l-5.19-3.34c-.05,2.07-.2,7.61-.51,9.71-.74,4.95-4.2,17.59-5.52,22.29l4.33-4.42s4.17-1.4,4.73-2.05c3.06-3.56,3.6-19.42,3.6-19.42.04-1.11-.51-2.17-1.45-2.77Z"/>
      <path class="cls-1" d="M19.08,1.2s-.14,7.91-.52,10.51c-.91,6.14-6.02,24.1-6.02,24.1-.17.68-.85,1.11-1.54.95l-9.97-2.21c-.71-.16-1.16-.88-.98-1.59,0,0,4.71-16.23,5.48-21.79.35-2.49.29-10.06.29-10.06.02-.62.52-1.11,1.14-1.11h10.99c.65,0,1.17.55,1.14,1.2Z"/>
    </g>
  </g>
</svg>