<?xml version="1.0" encoding="UTF-8"?>
<svg id="Layer_2" xmlns="http://www.w3.org/2000/svg" viewBox="0 0 37.94 31.17">
  <defs>
    <style>
      .cls-1 {
        fill: #ccc;
      }
    </style>
  </defs>
  <g id="Layer_1-2" data-name="Layer_1">
    <path class="cls-1" d="M37.2,16.61c.97-4.63,1.35-12.56-1.19-14.67C32.51-.98,27.97.22,23.82.37c-.2,0-.38.02-.51.04-.64.03-4.27.29-5.68,2.66-1.13.95-3.16,2.39-6.96,2.9-2.27.3-9.11-.51-9.11-.51-.76-.07-1.56.13-1.56,1.15v18.27s0,1.33,1.45,1.33c1.77,0,4.7.08,5.9.08,1.86,0,3.85.24,5.2.44,0,0,0,0,0,0l.7.46s2.27.98,3.34,1.82c.99.78,3.28,2.26,6.54,2.18.98-.02,2.43-.27,3.54-.64,3.25-1.08,5.14-3.41,6.49-5.05.29-.36.57-.73.83-1.09h0s0,0,0,0c0,0,0-.02.02-.03.02-.03.05-.08.09-.14-.03.05-.05.09-.07.12.07-.11.15-.21.22-.32,0,0,0,0,0,0,0,0,.82-.85,1.36-1.97.81-1.68,1.86-4.59,1.61-5.44,0,0,0,0,0,0ZM32.14,14.99s-.01,0-.02,0c-.07,0-.13.03-.16.08-.04.04-.07.11-.05.17,0,0,0,.01,0,.02,0,.06-.01.13-.02.2-.37.12-.85.3-1.18.5,0,0,0,0,0,0,0,0,0,0,0,0,0,0,0,0,0,0,0,0,0,0,0,0,.13-.36.22-.87.28-1.25.07-.02.13-.04.19-.06,0,0,.01,0,.02,0,.07,0,.13-.03.16-.08.04-.04.07-.11.05-.17,0,0,0-.01,0-.02,0-.06.01-.13.02-.19.37-.12.85-.3,1.18-.5,0,0,0,0,0,0,0,0,0,0,0,0,0,0,0,0,0,0,0,0,0,0,0,0-.13.36-.22.87-.28,1.25-.07.02-.13.04-.19.06ZM32.28,15.32s0,.01,0,.02c0,0-.01,0-.02,0,0,0,0-.01,0-.02,0,0,.01,0,.02,0ZM28.96,15.49s0,0,0,0c0,0,0,0,0,0,0,0,0,0,0,0,0,0,0,0,0,0-.13.36-.22.87-.28,1.25-.07.02-.13.04-.19.06,0,0-.01,0-.02,0-.07,0-.13.03-.16.08-.04.04-.07.11-.05.17,0,0,0,.01,0,.02,0,.06-.01.13-.02.2-.3.1-.68.24-.99.39-.04,0-.08,0-.12,0-.02,0-.04,0-.06,0,0-.02.02-.05.02-.07.49-.61,1.03-1.28,1.59-1.97.09-.04.17-.09.25-.13ZM28.66,17.13s0,.01,0,.02c0,0-.01,0-.02,0,0,0,0-.01,0-.02,0,0,.01,0,.02,0ZM24.83,8.97c.07-.03.13-.06.19-.09,0,0,.01,0,.02,0,.07,0,.13-.05.16-.1.04-.05.05-.12.03-.19,0,0,0-.01-.01-.02,0-.07,0-.14,0-.21.37-.18.85-.43,1.17-.69,0,0,0,0,0,0,0,0,0,0,0,0,0,0,0,0,0,0,0,0,0,0,0,0-.05.22-.08.48-.1.75-.29.47-.59.97-.9,1.47-.24.13-.49.28-.67.43,0,0,0,0,0,0,0,0,0,0,0,0,0,0,0,0,0,0,0,0,0,0,0,0,.09-.4.11-.94.11-1.36ZM24.83,8.54s.01,0,.02,0c0,0,0,.01,0,.02,0,0-.01,0-.02,0,0,0,0-.01,0-.02ZM26.94,5.63c.06-.03.11-.05.17-.08.01,0,.02,0,.04,0,.07,0,.13-.05.16-.11.04-.05.06-.13.03-.19,0-.01-.01-.02-.02-.03,0-.06,0-.12,0-.18.18-.09.4-.2.6-.31.17.21.22.46.1.83-.03.08-.26.49-.61,1.09-.2.12-.4.24-.56.37,0,0,0,0,0,0,0,0,0,0,0,0,0,0,0,0,0,0,0,0,0,0,0,0,.09-.4.11-.94.11-1.36ZM26.93,5.21s0,0,0,0c0,0,0,0,0,.01,0,0,0,0,0,0,0,0,0,0,0-.01ZM27.62,4.45c-.1.06-.2.11-.31.16,0-.12,0-.24.01-.36.11.07.21.13.29.19ZM26.87,7.49s.04-.05.07-.08c-.04.06-.08.13-.12.2.02-.04.03-.08.05-.11ZM25.21,7.95c.01-.57.07-1.16.2-1.37.13-.21.64-.51,1.15-.77-.01.57-.07,1.16-.2,1.37-.13.21-.64.51-1.15.77ZM29.43,15.38c.15-.18.66-.4,1.17-.57-.08.53-.21,1.07-.35,1.25-.15.18-.66.4-1.17.57.08-.53.21-1.07.35-1.25ZM30.59,17.48c-.08.01-.17.02-.25.03.08-.47.2-.94.33-1.1.15-.18.66-.4,1.17-.57-.08.53-.21,1.07-.35,1.25-.08.09-.26.2-.49.3-.12.03-.25.06-.4.09ZM31.02,14.3s0-.01,0-.02c0,0,.01,0,.02,0,0,0,0,.01,0,.02,0,0-.01,0-.02,0ZM31.45,13.78c.08-.53.21-1.07.35-1.25s.66-.4,1.17-.57c-.08.53-.21,1.07-.35,1.25-.15.18-.66.4-1.17.57ZM33.05,13.56c.15-.18.66-.4,1.17-.57-.08.53-.21,1.07-.35,1.25-.15.18-.66.4-1.17.57.08-.53.21-1.07.35-1.25ZM33.51,11.78s.02,0,.03,0c.07,0,.13-.03.16-.08.05-.04.07-.11.05-.18,0-.01,0-.02-.01-.04,0-.05.01-.11.02-.17.31-.1.69-.24,1.01-.4,0,.19.01.39.01.59-.04.2-.07.4-.1.58-.06.02-.11.03-.16.05-.01,0-.02,0-.04,0-.07,0-.13.03-.16.08-.05.04-.07.11-.05.18,0,.01,0,.02.01.03,0,.06-.01.11-.02.17-.37.12-.85.3-1.18.5,0,0,0,0,0,0,0,0,0,0,0,0,0,0,0,0,0,0,0,0,0,0,0,0,.13-.36.22-.87.28-1.25.06-.02.11-.03.17-.05ZM33.4,11.45s0,0,0-.01c0,0,0,0,0,0,0,0,0,0,0,.01,0,0,0,0,0,0ZM34.52,9.46c.12.2.2.59.24,1.09-.23.13-.58.28-.93.4.08-.53.21-1.07.35-1.25.06-.07.18-.15.34-.23ZM34.65,12.48s0,0,0,.01c0,0,0,0,0,0,0,0,0,0,0-.01,0,0,0,0,0,0ZM34.46,14.9s-.18.15-.41.35c.07-.29.15-.54.24-.65.07-.08.21-.17.4-.26-.01.17-.02.34-.03.5-.06,0-.13.02-.19.06ZM34.33,14.13s0,0,0,0c0,0,0,0,0,0,0,0,0,0,0,0,0,0,0,0,0,0,.13-.36.22-.87.28-1.25.06-.02.11-.03.17-.05,0,0,0,0,0,0-.01.37-.03.75-.05,1.12-.14.06-.27.13-.38.19ZM33.61,9.85s.07-.04.1-.05c0,0,0,0,0,0,0,0,0,0,0,0,0,0,0,0,0,0,0,0,0,0,0,0-.13.36-.22.87-.28,1.25-.06.02-.11.03-.16.05-.01,0-.02,0-.04,0-.07,0-.13.03-.16.08-.05.04-.07.11-.05.18,0,.01,0,.02.01.03,0,.06-.01.11-.02.17-.37.12-.85.3-1.18.5,0,0,0,0,0,0,0,0,0,0,0,0,0,0,0,0,0,0,0,0,0,0,0,0,.04-.1.07-.21.1-.33.67-.78,1.25-1.44,1.68-1.87ZM31.34,12.64s0,0,0,0c0,0,0,0,0,0,0,0,0,0,0,0,0,0,0,0,0,0-.13.36-.22.87-.28,1.25-.07.02-.13.04-.19.06,0,0-.01,0-.02,0-.07,0-.13.03-.16.08-.04.04-.07.11-.05.17,0,0,0,.01,0,.02,0,.06-.01.13-.02.2-.37.12-.85.3-1.18.5,0,0,0,0,0,0,0,0,0,0,0,0,0,0,0,0,0,0,0,0,0,0,0,0,.04-.09.07-.2.1-.31.5-.61,1-1.22,1.47-1.79.11-.05.22-.11.32-.16ZM26.96,4.08c-.02.25-.03.5-.03.72-.06.03-.11.05-.17.07-.01,0-.03,0-.04,0-.07,0-.13.05-.16.11-.04.05-.06.13-.03.19,0,.01.01.02.02.03,0,.06,0,.12,0,.18-.37.18-.85.43-1.17.69,0,0,0,0,0,0,0,0,0,0,0,0,0,0,0,0,0,0,0,0,0,0,0,0,.09-.4.11-.94.11-1.36.06-.03.11-.05.17-.08.01,0,.02,0,.04,0,.07,0,.13-.05.16-.11.04-.05.06-.13.03-.19,0-.01-.01-.02-.02-.03,0-.06,0-.12,0-.18.06-.03.12-.06.18-.09.31-.06.63-.05.93.05ZM25.48,4.29s0,0,0,0c0,0,0,0,0,.01,0,0,0,0,0,0,0,0,0,0,0-.01ZM25.11,4.48c-.09.05-.2.1-.3.15.01-.03.03-.06.04-.09h0c.08-.05.17-.11.26-.15,0,.03,0,.06,0,.09ZM24.44,5.48c.04-.1.08-.2.12-.29.17-.1.36-.2.54-.3-.01.57-.07,1.16-.2,1.37-.12.19-.58.47-1.05.72.18-.51.37-1.01.58-1.5ZM23.57,7.96s.01,0,.02,0c.07,0,.13-.05.16-.1.04-.05.05-.12.03-.19,0,0,0-.01-.01-.02,0-.07,0-.14,0-.21.37-.18.85-.43,1.17-.69,0,0,0,0,0,0,0,0,0,0,0,0,0,0,0,0,0,0,0,0,0,0,0,0-.09.4-.11.94-.11,1.36-.07.03-.13.06-.19.09,0,0-.02,0-.02,0-.07,0-.13.05-.16.1-.04.05-.05.12-.03.19,0,0,0,.01.01.02,0,.07,0,.14,0,.21-.37.18-.85.43-1.17.69,0,0,0,0,0,0,0,0,0,0,0,0,0,0,0,0,0,0,0,0,0,0,0,0,.07-.3.1-.67.11-1.01.04-.14.09-.27.13-.41.02,0,.04-.02.06-.03ZM22.73,11.47c-.05.02-.1.05-.15.07.06-.44.14-.89.25-1.35-.08.39-.1.89-.1,1.28ZM22.74,11.89s-.01,0-.02,0c0,0,0-.01,0-.02,0,0,.01,0,.02,0,0,0,0,.01,0,.02ZM22.6,14.47s0-.07-.01-.11c.02-.08.05-.14.07-.19.05-.08.15-.17.29-.27-.12.2-.24.39-.35.56ZM23.31,9.92c.13-.21.64-.51,1.15-.77-.01.57-.07,1.16-.2,1.37-.13.21-.64.51-1.15.77.01-.57.07-1.16.2-1.37ZM23.38,13.21c-.27.14-.54.31-.74.47,0,0,0,0,0,0,0,0,0,0,0,0,0,0,0,0,0,0,0,0,0,0,0,0,.09-.4.11-.94.11-1.36.07-.03.13-.06.19-.09,0,0,.01,0,.02,0,.07,0,.13-.05.16-.1.04-.05.05-.12.03-.19,0,0,0-.01-.01-.02,0-.07,0-.14,0-.21.37-.18.85-.43,1.17-.69,0,0,0,0,0,0,0,0,0,0,0,0,0,0,0,0,0,0,0,0,0,0,0,0-.06.25-.09.55-.1.85-.29.47-.57.92-.83,1.34ZM24.76,10.83c.04-.06.11-.13.21-.21-.1.17-.2.33-.31.5.03-.13.06-.23.1-.29ZM28.22,17.66s0,0,0,0c0,0,0,0,0,0,0,0,0,0,0,0ZM28.59,17.53c.07-.02.13-.04.19-.06,0,0,.01,0,.02,0,.07,0,.13-.03.16-.08.04-.04.07-.11.05-.17,0,0,0-.01,0-.02,0-.06.01-.13.02-.19.37-.12.85-.3,1.18-.5,0,0,0,0,0,0,0,0,0,0,0,0,0,0,0,0,0,0,0,0,0,0,0,0-.11.29-.19.67-.24,1.01-.08,0-.16.01-.24.02l-.25.02c-.29.02-.59.04-.92.06,0-.04.01-.07.02-.11ZM32.21,15.72c.07-.02.13-.04.19-.06,0,0,.01,0,.02,0,.07,0,.13-.03.16-.08.04-.04.07-.11.05-.17,0,0,0-.01,0-.02,0-.06.01-.13.02-.19.37-.12.85-.3,1.18-.5,0,0,0,0,0,0,0,0,0,0,0,0,0,0,0,0,0,0,0,0,0,0,0,0-.1.26-.17.59-.22.89-.08.07-.16.13-.25.2-.48.39-.97.79-1.42,1.09.12-.36.21-.83.26-1.19Z"/>
  </g>
</svg>