<?xml version="1.0" encoding="UTF-8"?>
<svg id="Layer_2" xmlns="http://www.w3.org/2000/svg" viewBox="0 0 37.98 35.4">
  <defs>
    <style>
      .cls-1 {
        fill: #ccc;
      }
    </style>
  </defs>
  <g id="Layer_1-2" data-name="Layer_1">
    <path class="cls-1" d="M37.97,15c-.01-.5-.06-.98-.16-1.38-.07-.3-.17-.54-.31-.71-.35-.43-2.35-.45-2.35-.45l-1.75.09-1.48-.11-1.11-.64-4.42-5.58-3.37-1.17-.29-2.87s-.32-.83-1.14-1.35c-.07-.16-.15-.29-.25-.4-.2-.21-.46-.33-.79-.39-.17-.03-.35-.04-.55-.04-.62,0-1.19.12-1.58.45-.13.11-.24.25-.32.41-.86.44-1.12.97-1.19,1.21-.02.08-.03.13-.03.13l-.38,2.88-4.45,1.12c-.23.16-.45.33-.67.51-1.3,1.07-2.33,2.43-3.01,3.97-.11.26-.22.52-.31.78l-1.2,3.42L.98,2.54h0l-.98.51,6.14,12.95s-.04.06-.06.09c-.06.1-.12.19-.19.29-.03.05-.06.1-.09.15-.06.09-.12.18-.18.28-.03.05-.07.11-.1.16-.06.09-.12.19-.18.28-.04.06-.08.12-.11.18-.08.12-.15.24-.23.36-.03.05-.06.09-.09.14-.07.12-.14.23-.21.34-.04.06-.07.12-.11.17-.05.09-.11.17-.16.25-.03.05-.06.1-.09.15-.06.09-.11.18-.16.26-.02.04-.04.07-.06.11-.07.12-.13.23-.19.33-.04.06-.05.13-.05.21.02.37.52.88,1.18,1.38.26.2.55.4.84.6,1.16.77,2.4,1.42,2.4,1.42l-6.65,5.25-.59,1.86c-.06.19-.08.38-.05.57s.09.37.19.54l2.09,3.36c.25.39.68.64,1.14.64h1.67l5.82-5.33,1.93,3.9c.1.2.24.37.41.5.17.13.37.23.58.29.28.08.58.15.91.21.97.2,2.13.35,3.36.38h0c1.19.03,2.79-.19,4.03-.36.41-.06.79-.11,1.09-.14.17-.02.31-.1.42-.21.1-.12.17-.27.17-.44v-1.48c0-.39-.33-.69-.71-.65-.64.06-1.62.15-2.57.23-.95.08-1.88.14-2.42.14-.83,0-1.44-.15-1.89-.33-.29-.12-.51-.26-.67-.38-.23-.18-.33-.33-.33-.33l-1.75-3.66,4.31-3.94,1.26-.07,11.48,11.2,1.73.26c.45.07.91-.1,1.21-.44l2.85-3.22c.29-.33.4-.77.3-1.19l-.3-1.28-7.33-7.33-.59-1.37.91-.62c.08-.06.18-.09.28-.09.1,0,.19.03.28.08l.92.59c.16.11.36.16.55.15l2.35-.1c.25-.01.46-.14.67-.25.07-.04.15-.08.22-.11.89-.35,1.76-.75,2.17-2.34.09-.35.21-1.33.21-2.32,0-.12,0-.25,0-.37Z"/>
  </g>
</svg>