<?xml version="1.0" encoding="UTF-8"?>
<svg id="Layer_2" xmlns="http://www.w3.org/2000/svg" viewBox="0 0 25.48 38">
  <defs>
    <style>
      .cls-1 {
        fill: #ccc;
      }
    </style>
  </defs>
  <g id="Layer_1-2" data-name="Layer_1">
    <g>
      <path class="cls-1" d="M11.14,0c-.2,0-.5,0-.84,0L2.39.03s-.01-.03-.11-.03H.63C.39,0,.26.32.26.32c0,0,.01,0,.02,0-.08.14-.12.27-.12.27C-.02,3.86-.02,11.47.03,17.64c0,.14.09.42.09.42,0,0-.09.26-.09.39.06,7.31.19,12.27.19,12.27,0,.4.34.4.34.4,0,0-.32,0-.32.34l-.03,4.15.16,1.39s-.01-.03-.02-.04l.1.72c.32.39.47.31.8.31s6.79-.11,7.53-.11c1.83,0,1.95-1.26,2.18-2.38.03-.13-.06-.22-.1-.22,0,0,0,.03,0,.06,0,.03,0,.05-.02.07.31-1.76.96-4.1.96-4.51,0-1.21.14-21.22.19-27.65h.04c0-.09,0-1.65.01-2.58,0-.37-.56-.67-.92-.68Z"/>
      <path class="cls-1" d="M25.32.58s-.05-.13-.12-.27c0,0,.01,0,.02,0,0,0-.13-.32-.37-.32h-1.65c-.1,0-.11.03-.11.03l-7.91-.03c-.35,0-.64,0-.84,0-.36,0-.93.3-.92.68,0,.92.01,2.49.01,2.58h.04c.04,6.43.19,26.44.19,27.65,0,.41.65,2.75.96,4.51-.01-.02-.02-.05-.02-.07,0-.03,0-.06,0-.06-.04,0-.13.08-.1.22.23,1.12.35,2.38,2.18,2.38.74,0,7.2.11,7.53.11s.48.09.8-.31l.1-.72s0,.03-.02.04l.16-1.39-.03-4.15c0-.34-.32-.34-.32-.34,0,0,.34,0,.34-.4,0,0,.13-4.96.19-12.27,0-.13-.09-.39-.09-.39,0,0,.09-.28.09-.42.05-6.18.04-13.78-.13-17.06Z"/>
    </g>
  </g>
</svg>